<?xml version="1.0" standalone="no"?><!DOCTYPE svg PUBLIC "-//W3C//DTD SVG 1.1//EN" "http://www.w3.org/Graphics/SVG/1.1/DTD/svg11.dtd"><svg t="1584804884603" class="icon" viewBox="0 0 1024 1024" version="1.1" xmlns="http://www.w3.org/2000/svg" p-id="9816" xmlns:xlink="http://www.w3.org/1999/xlink" width="100" height="100"><defs><style type="text/css"></style></defs><path d="M218.837612 894.327662c-78.991052-117.684306-74.157977-254.711146 14.509459-403.023007 75.768661-128.968303 75.768661-245.041926-1.610684-357.889063l37.075407-25.790386c87.056752 125.742842 87.056752 262.769682 3.225461 406.248468-80.605829 135.416156-85.441974 251.485685-16.121166 356.274286L218.837612 894.327662z m591.642898 0l-37.0795-25.794479c69.320808-103.173824 64.484663-220.854037-16.121166-356.270193-85.441974-143.478785-83.83129-282.121426 4.837169-407.863245l37.078476 25.794479c-78.994122 112.847138-78.994122 230.52735-3.225461 359.495654 88.664366 149.926638 93.500511 286.953478 14.510482 404.637784z m0 0" p-id="9817" fill="#1296db"></path><path d="M513.853719 883.043664L188.205964 592.863702h659.353023L513.853719 883.043664zM305.89027 638.005832L513.853719 823.396169l212.795501-185.390337H305.89027z m0 0M483.222071 484.853733c0 14.245446 11.54801 25.794479 25.79448 25.79448s25.794479-11.549034 25.794479-25.79448c0-14.242376-11.54801-25.791409-25.794479-25.791409s-25.794479 11.549034-25.79448 25.791409z m0 0" p-id="9818" fill="#1296db"></path></svg>