<?xml version="1.0" standalone="no"?><!DOCTYPE svg PUBLIC "-//W3C//DTD SVG 1.1//EN" "http://www.w3.org/Graphics/SVG/1.1/DTD/svg11.dtd"><svg t="1585222531487" class="icon" viewBox="0 0 1024 1024" version="1.1" xmlns="http://www.w3.org/2000/svg" p-id="4726" width="48" height="48"><path d="M578.101333 476.32c67.445333 0 101.578667-60.533333 101.578667-126.538667 0-65.994667-34.133333-126.528-101.578667-126.528-67.445333 0-101.578667 60.533333-101.578666 126.528 0 66.005333 34.133333 126.538667 101.578666 126.538667z m0-226.048c51.669333 0 73.322667 50.730667 73.322667 99.413333 0 48.672-21.653333 99.52-73.322667 99.52-51.658667 0-73.322667-50.741333-73.322666-99.52-0.106667-48.576 21.653333-99.413333 73.322666-99.413333zM735.893333 418.88c-18.144 10.72-33.813333 21.866667-36.192 51.669333h84.149334v-13.312h-66.208c2.88-15.466667 20.213333-23.818667 36.192-33.301333 15.989333-10.005333 31.253333-21.045333 31.253333-43.210667 0-23.52-18.048-36.298667-40.32-36.298666-27.232 0-42.901333 19.072-41.461333 44.650666h15.466666c-0.512-15.157333 7.114667-31.36 25.066667-31.36 13.610667 0 24.96 9.088 24.96 22.794667 0 17.536-11.146667 24.96-32.906667 38.368z" fill="#8A96FF" p-id="4727"></path><path d="M512.618667 559.434667c-125.92-72.394667-187.274667-69.194667-346.912-62.293334-0.213333 5.685333-0.213333 7.946667-0.213334 11.872 0 191.701333 155.413333 347.114667 347.125334 347.114667 181.6 0 330.624-139.424 345.877333-317.109333-77.44 45.066667-208.618667 99.413333-345.877333 20.416z" fill="#8A96FF" fill-opacity=".5" p-id="4728"></path><path d="M512 50.005333C256.864 50.005333 50.005333 256.853333 50.005333 512 50.005333 767.146667 256.853333 974.005333 512 974.005333c255.136 0 462.005333-206.869333 462.005333-462.005333C974.005333 256.864 767.136 50.005333 512 50.005333z m0 866.24C288.746667 916.256 107.754667 735.274667 107.754667 512c0-223.264 180.981333-404.245333 404.245333-404.245333C735.264 107.754667 916.266667 288.736 916.266667 512 916.256 735.264 735.253333 916.266667 512 916.266667z" fill="#8A96FF" p-id="4729"></path></svg>