<?xml version="1.0" standalone="no"?><!DOCTYPE svg PUBLIC "-//W3C//DTD SVG 1.1//EN" "http://www.w3.org/Graphics/SVG/1.1/DTD/svg11.dtd"><svg t="1584878181023" class="icon" viewBox="0 0 1282 1024" version="1.1" xmlns="http://www.w3.org/2000/svg" p-id="3006" width="100" height="100"><path d="M805.805534 484.010853c35.608428 50.115565 93.636977 87.042824 158.259679 87.042823 143.752542 0 245.302503 87.042824 245.302503 208.375245 0 29.014275-50.115565 50.115565-137.158389 64.622702 0 29.014275-14.507137 58.028549-35.608428 79.12984 143.752542-14.507137 245.302503-58.028549 245.302503-143.752542 0-122.651251-72.535686-216.288228-187.273953-259.809641 43.521412-35.608428 72.535686-93.636977 72.535686-151.665526 0-108.144114-87.042824-201.781091-201.781091-201.781091-21.101291 0-43.521412 0-64.622703 6.594154 6.594153 21.101291 14.507137 50.115565 14.507138 72.535686 14.507137-6.594153 29.014275-6.594153 50.115565-6.594153 72.535686 0 129.245405 58.028549 129.245405 129.245404 0 72.535686-58.028549 129.245405-129.245405 129.245405-50.115565 0-93.636977-29.014275-114.738268-64.622702-7.912984 22.420121-22.420121 36.927259-44.840242 51.434396z m295.418068 42.202581c-43.521412-14.507137-87.042824-21.101291-129.245405-21.101291-29.014275 0-64.622702 0-93.636977 6.594153 35.608428 14.507137 64.622702 35.608428 87.042824 64.622703h6.594153c50.115565-6.594153 93.636977-21.101291 129.245405-50.115565z m-778.11009-352.127787c-108.144114 0-201.781091 87.042824-201.781091 201.781091s87.042824 201.781091 201.781091 201.781091c87.042824 0 158.259679-58.028549 187.273954-137.158388l6.594153-21.101291-13.188307-15.825968c-35.608428-35.608428-58.028549-87.042824-58.028549-137.158389v-50.115565l-21.10129-14.507137c-29.014275-21.101291-64.622702-27.695444-101.549961-27.695444z m87.042824 56.709719l-36.927259-6.594154v35.608428c0 72.535686 29.014275 137.158389 79.12984 187.273954l-6.594154-35.608428c-14.507137 50.115565-64.622702 87.042824-122.651251 87.042824-72.535686 0-129.245405-58.028549-129.245405-129.245405 0-72.535686 58.028549-129.245405 129.245405-129.245405 21.101291 0 50.115565 6.594153 64.622702 21.101291l22.420122-30.333105zM77.811009 779.428921c0-122.651251 101.549961-208.375244 245.302503-208.375245 29.014275 0 58.028549 6.594153 87.042824 14.507137l6.594153-35.608427-14.507137-29.014275C279.5921 584.241983 214.969398 698.98025 214.969398 844.051623c0 29.014275 6.594153 50.115565 21.10129 72.535686l29.014275-21.10129v-35.608428C150.346695 844.051623 77.811009 815.037348 77.811009 779.428921z m259.80964 150.346695l-50.115565-64.622702c-7.912984-6.594153-7.912984-21.101291-7.912984-29.014275 0-114.738267 58.028549-201.781091 151.665526-259.80964l79.12984-43.521412-85.723993-21.101291c-35.608428-6.594153-72.535686-14.507137-108.144114-14.507137-180.679801 0-316.519359 114.738267-316.519359 280.910931 0 87.042824 108.144114 129.245405 259.80964 143.752542l77.811009 7.912984z" fill="#1296db" p-id="3007"></path><path d="M923.181463 267.722624C923.181463 122.651251 801.849042 0 650.183516 0S375.866738 116.057098 375.866738 267.722624c0 143.752542 122.651251 266.403793 274.316778 266.403794S923.181463 411.475166 923.181463 267.722624z m-474.779038 0c0-108.144114 87.042824-195.186938 201.781091-195.186938s201.781091 87.042824 201.781091 195.186938S764.921783 462.909562 650.183516 462.909562C534.126418 461.590731 448.402425 367.953754 448.402425 267.722624z" fill="#1296db" p-id="3008"></path><path d="M1082.759973 836.138639c0-222.882382-187.273954-382.460892-432.576457-382.460892s-432.576457 158.259679-432.576457 382.460892c0 114.738267 187.273954 187.273954 432.576457 187.273954 245.302503 7.912984 432.576457-64.622702 432.576457-187.273954z m-792.617228 0c0-180.679801 151.665526-309.925205 360.040771-309.925205s360.04077 129.245405 360.04077 309.925205c0 64.622702-143.752542 114.738267-360.04077 114.738267C448.402425 958.78989 290.142745 894.167188 290.142745 836.138639z" fill="#1296db" p-id="3009"></path></svg>