<?xml version="1.0" standalone="no"?><!DOCTYPE svg PUBLIC "-//W3C//DTD SVG 1.1//EN" "http://www.w3.org/Graphics/SVG/1.1/DTD/svg11.dtd"><svg t="1584876419483" class="icon" viewBox="0 0 1024 1024" version="1.1" xmlns="http://www.w3.org/2000/svg" p-id="5782" xmlns:xlink="http://www.w3.org/1999/xlink" width="100" height="100"><defs><style type="text/css"></style></defs><path d="M896.512 989.696H127.488c-51.712 0-93.184-20.48-113.664-55.808s-17.92-81.92 7.168-127.488L409.088 105.984c25.088-45.568 62.976-71.68 102.912-71.68s77.824 26.112 102.912 71.68L1003.52 806.912c25.088 45.568 27.648 91.648 7.168 127.488-20.992 35.328-62.464 55.296-114.176 55.296zM512 102.4c-12.8 0-27.648 12.8-39.936 34.816L80.384 846.848c-12.288 22.528-15.36 42.496-7.68 54.784 7.168 12.8 26.112 19.968 51.2 19.968H901.12c25.088 0 44.032-7.168 51.2-19.968 7.168-12.8 4.608-32.768-7.68-54.784L551.424 137.216c-11.776-22.016-26.624-34.816-39.424-34.816z m0 592.384c-18.944 0-34.304-16.384-34.304-36.864V327.168c0-20.48 15.36-36.864 34.304-36.864s34.304 16.384 34.304 36.864v330.752c0 20.48-15.36 36.864-34.304 36.864z m0 142.336c23.552 0 42.496-19.456 42.496-43.008 0-23.552-18.944-43.008-42.496-43.008s-42.496 19.456-42.496 43.008c0 23.552 18.944 43.008 42.496 43.008z" p-id="5783" fill="#ea9518"></path></svg>