<?xml version="1.0" standalone="no"?><!DOCTYPE svg PUBLIC "-//W3C//DTD SVG 1.1//EN" "http://www.w3.org/Graphics/SVG/1.1/DTD/svg11.dtd"><svg t="1584876396490" class="icon" viewBox="0 0 1024 1024" version="1.1" xmlns="http://www.w3.org/2000/svg" p-id="4987" xmlns:xlink="http://www.w3.org/1999/xlink" width="80" height="80"><defs><style type="text/css"></style></defs><path d="M433.046 494.558c110.61 0 200.213-89.6 200.213-200.213 0-110.616-89.604-200.216-200.213-200.216-110.616 0-200.212 89.6-200.212 200.216s89.596 200.213 200.212 200.213z m75.114 216.139c0-81.268 34.458-154.453 89.504-205.872l-0.208-0.003c-5.656 0-14.452 2.201-19.487 4.874 0 0-13.045 7.547-24.982 12.578-35.686 15.408-76.243 24.2-119.47 24.2-42.909 0-83.466-8.638-118.982-23.886-12.107-5.188-25.467-12.889-25.467-12.889-5.027-2.826-13.673-5.027-19.493-4.874l-16.186 0.157c-65.232 8.646-133.765 89.597-153.412 152.153 0 0-20.907 42.277-23.894 125.273-0.157 10.847 8.49 24.521 19.647 30.344 0 0 111.132 71.356 337.002 71.356 48.207 0 91.12-3.267 128.891-8.373-33.597-46.394-53.463-103.386-53.463-165.038z" fill="#1296db" p-id="4988"></path><path d="M753.428 506.986c-111.636 0-202.134 90.498-202.134 202.13 0 111.637 90.498 202.135 202.134 202.135 111.63 0 202.128-90.498 202.128-202.134 0-111.633-90.494-202.131-202.128-202.131z m117.706 220.627h-99.09v98.455c0 10.315-8.338 18.68-18.612 18.68-10.281 0-18.62-8.362-18.62-18.68v-98.455H635.73c-10.387 0-18.8-8.28-18.8-18.496 0-10.213 8.413-18.49 18.8-18.49h99.082v-98.461c0-10.312 8.339-18.682 18.62-18.682 10.274 0 18.613 8.366 18.613 18.682v98.46h99.089c10.38 0 18.797 8.278 18.797 18.49 0 10.217-8.417 18.497-18.797 18.497z" fill="#1296db" p-id="4989"></path></svg>